{"asset":{"version":"2.0","generator":"VECTARY"},"nodes":[{"translation":[0,0,0],"scale":[0.0006666666666666666,0.0006349206349206349,0.000966183574879227],"rotation":[-0.7071067811865475,0,0,0.7071067811865476],"name":"pillar - baked","mesh":0}],"materials":[{"pbrMetallicRoughness":{"baseColorFactor":[0.4704402453042184,0.41514809165590655,0.35865390592619895,1],"metallicFactor":1,"roughnessFactor":0.32},"name":"Silver Satin 1","emissiveFactor":[0.39749019607843145,0.3755294117647059,0.35137254901960785],"extensions":{},"alphaMode":"OPAQUE","doubleSided":false}],"meshes":[{"primitives":[{"mode":4,"attributes":{"POSITION":1,"NORMAL":2,"TEXCOORD_0":3},"material":0,"indices":0}]}],"accessors":[{"bufferView":0,"byteOffset":0,"componentType":5125,"count":36,"type":"SCALAR"},{"bufferView":1,"byteOffset":0,"componentType":5126,"count":24,"max":[30,31.5,207],"min":[-30,-31.5,0],"type":"VEC3"},{"bufferView":2,"byteOffset":0,"componentType":5126,"count":24,"type":"VEC3"},{"bufferView":3,"byteOffset":0,"componentType":5126,"count":24,"type":"VEC2"}],"bufferViews":[{"buffer":0,"byteOffset":0,"byteLength":144,"target":34963},{"buffer":0,"byteOffset":144,"byteLength":288,"target":34962},{"buffer":0,"byteOffset":432,"byteLength":288,"target":34962},{"buffer":0,"byteOffset":720,"byteLength":192,"target":34962}],"scene":0,"scenes":[{"nodes":[0],"name":"Project Name"}],"extensionsUsed":["KHR_texture_transform"],"buffers":[{"byteLength":912,"uri":"ProjectName.bin"}]}