{"asset":{"version":"2.0","generator":"VECTARY"},"nodes":[{"translation":[0,0,0],"scale":[0.00017021276595744682,0.002,0.0013333333333333333],"rotation":[-0.7071067811865475,0,0,0.7071067811865476],"name":"roof","mesh":0}],"materials":[{"pbrMetallicRoughness":{"baseColorFactor":[0.4704402453042184,0.41514809165590655,0.3586539059261989,1],"metallicFactor":1,"roughnessFactor":0.33},"name":"Silver Satin 3","emissiveFactor":[0.39749019607843145,0.3755294117647059,0.35137254901960785],"extensions":{},"alphaMode":"OPAQUE","doubleSided":false}],"meshes":[{"primitives":[{"mode":4,"attributes":{"POSITION":1,"NORMAL":2,"TEXCOORD_0":3},"material":0,"indices":0}]}],"accessors":[{"bufferView":0,"byteOffset":0,"componentType":5125,"count":132,"type":"SCALAR"},{"bufferView":1,"byteOffset":0,"componentType":5126,"count":72,"max":[23.5,50,30],"min":[-23.5,-50,0],"type":"VEC3"},{"bufferView":2,"byteOffset":0,"componentType":5126,"count":72,"type":"VEC3"},{"bufferView":3,"byteOffset":0,"componentType":5126,"count":72,"type":"VEC2"}],"bufferViews":[{"buffer":0,"byteOffset":0,"byteLength":528,"target":34963},{"buffer":0,"byteOffset":528,"byteLength":864,"target":34962},{"buffer":0,"byteOffset":1392,"byteLength":864,"target":34962},{"buffer":0,"byteOffset":2256,"byteLength":576,"target":34962}],"scene":0,"scenes":[{"nodes":[0],"name":"Project Name"}],"extensionsUsed":["KHR_texture_transform"],"buffers":[{"byteLength":2832,"uri":"ProjectName.bin"}]}